<?xml version="1.0" encoding="UTF-8"?>
<svg id="Calque_1" data-name="Calque 1" xmlns="http://www.w3.org/2000/svg" viewBox="0 0 6 16">
  <polygon points="3 0 2 0 2 1 3 1 4 1 4 0 3 0" style="fill: #241f35;"/>
  <polygon points="3 1 2 1 2 2 3 2 4 2 4 1 3 1" style="fill: #e5700f;"/>
  <polygon points="1 1 1 2 1 3 2 3 2 2 2 1 1 1" style="fill: #241f35;"/>
  <rect x="2" y="2" width="1" height="1" style="fill: #fffeff;"/>
  <polygon points="4 1 4 2 4 3 5 3 5 2 5 1 4 1" style="fill: #241f35;"/>
  <rect x="1" y="3" width="1" height="1" style="fill: #e5700f;"/>
  <rect x="2" y="3" width="1" height="1" style="fill: #fad571;"/>
  <polygon points="3 2 3 3 3 4 4 4 4 3 4 2 3 2" style="fill: #e8b54f;"/>
  <rect x="4" y="3" width="1" height="1" style="fill: #e5700f;"/>
  <rect x="1" y="4" width="1" height="1" style="fill: #993f4b;"/>
  <polygon points="3 4 2 4 2 5 3 5 4 5 4 4 3 4" style="fill: #e5700f;"/>
  <rect x="4" y="4" width="1" height="1" style="fill: #993f4b;"/>
  <rect x="2" y="5" width="1" height="1" style="fill: #fad571;"/>
  <rect x="2" y="6" width="1" height="1" style="fill: #fffeff;"/>
  <rect x="2" y="7" width="1" height="1" style="fill: #fffeff;"/>
  <rect x="2" y="8" width="1" height="1" style="fill: #fad571;"/>
  <rect x="2" y="9" width="1" height="1" style="fill: #fffeff;"/>
  <polygon points="1 5 1 6 1 7 1 8 1 9 1 10 1 11 2 11 2 10 2 9 2 8 2 7 2 6 2 5 1 5" style="fill: #e5700f;"/>
  <polygon points="4 5 4 6 4 7 4 8 4 9 4 10 4 11 5 11 5 10 5 9 5 8 5 7 5 6 5 5 4 5" style="fill: #e5700f;"/>
  <polygon points="0 3 0 4 0 5 0 6 0 7 0 8 0 9 0 10 0 11 0 12 1 12 1 11 1 10 1 9 1 8 1 7 1 6 1 5 1 4 1 3 0 3" style="fill: #241f35;"/>
  <rect x="1" y="11" width="1" height="1" style="fill: #993f4b;"/>
  <polygon points="2 10 2 11 2 12 3 12 3 11 3 10 2 10" style="fill: #fad571;"/>
  <polygon points="3 5 3 6 3 7 3 8 3 9 3 10 3 11 3 12 4 12 4 11 4 10 4 9 4 8 4 7 4 6 4 5 3 5" style="fill: #e8b54f;"/>
  <rect x="4" y="11" width="1" height="1" style="fill: #993f4b;"/>
  <polygon points="5 3 5 4 5 5 5 6 5 7 5 8 5 9 5 10 5 11 5 12 6 12 6 11 6 10 6 9 6 8 6 7 6 6 6 5 6 4 6 3 5 3" style="fill: #241f35;"/>
  <rect x="1" y="12" width="1" height="1" style="fill: #241f35;"/>
  <polygon points="3 12 2 12 2 13 3 13 4 13 4 12 3 12" style="fill: #993f4b;"/>
  <rect x="4" y="12" width="1" height="1" style="fill: #241f35;"/>
  <rect x="1" y="13" width="1" height="1" style="fill: #993f4b;"/>
  <rect x="2" y="13" width="1" height="1" style="fill: #fad571;"/>
  <rect x="3" y="13" width="1" height="1" style="fill: #e8b54f;"/>
  <rect x="4" y="13" width="1" height="1" style="fill: #993f4b;"/>
  <polygon points="4 14 3 14 2 14 1 14 1 15 2 15 3 15 4 15 5 15 5 14 4 14" style="fill: #e5700f;"/>
  <polygon points="5 13 5 14 5 15 4 15 3 15 2 15 1 15 1 14 1 13 0 13 0 14 0 15 0 16 1 16 2 16 3 16 4 16 5 16 6 16 6 15 6 14 6 13 5 13" style="fill: #241f35;"/>
</svg>