<svg width="48" height="36" viewBox="0 0 48 36" fill="none" xmlns="http://www.w3.org/2000/svg">
<path fill-rule="evenodd" clip-rule="evenodd" d="M10 1H14V5H18V9H30V5H34V1H38V8H34V9H40V13H44V4H48V20H44V28H40V29H44V36H40V32H36V28H12V32H8V36H4V29H8V28H4V20H0V4H4V13H8V9H14V8H10V1ZM30 16V17H34V16H30ZM14 16V17H18V16H14Z" fill="#27613B"/>
<path fill-rule="evenodd" clip-rule="evenodd" d="M14 0H10V4H14V8H8V12H4V3H0V16H4V24H8V28H4V32H8V28H12V24H36V28H40V32H44V28H40V24H44V16H48V3H44V12H40V8H34V4H38V0H34V4H30V8H18V4H14V0ZM28 12H34V16H28V12ZM14 12H20V16H14V12Z" fill="#00FF57"/>
</svg>
